<svg width="393" height="395" viewBox="0 0 393 395" fill="none" xmlns="http://www.w3.org/2000/svg">
<path fill-rule="evenodd" clip-rule="evenodd" d="M63.0214 95.7532C59.3876 97.577 55.7926 99.618 52.2574 101.947L63.0214 101.947V95.7532ZM39.4068 112.093C43.0993 108.62 46.8963 105.603 50.7696 102.947L63.0214 102.947V126.562L39.4068 126.562V112.093ZM26.7395 126.562C30.4747 121.413 34.3763 116.951 38.4068 113.048V126.562H26.7395ZM14.7922 146.771C18.3148 139.483 22.0731 133.13 26.0222 127.562H38.4068V151.176H14.7922V146.771ZM12.7435 151.176C13.0906 150.401 13.4402 149.635 13.7922 148.879V151.176H12.7435ZM4.14032 175.791C5.22473 171.192 6.4981 166.916 7.93131 163.026C9.33675 159.211 10.7942 155.599 12.2998 152.176H13.7922V175.791H4.14032ZM0.483717 200.406C1.09693 191.921 2.27446 183.974 3.90869 176.791H13.7922V200.406H0.483717ZM0.308236 225.02C-0.146752 216.841 -0.0868937 208.918 0.414231 201.406H13.7922V225.02H0.308236ZM3.19369 249.635C1.75487 241.628 0.832681 233.714 0.366354 226.02H13.7922V249.635H3.19369ZM9.26064 274.249C6.76608 266.374 4.8234 258.462 3.37599 250.635H13.7922L13.7922 274.249H9.26064ZM13.7922 286.955C12.2464 283.073 10.8448 279.166 9.58041 275.249H13.7922V286.955ZM19.0386 298.864C17.5229 295.738 16.1087 292.585 14.7922 289.414V275.249H38.4068V298.864H19.0386ZM33.6389 323.478C28.2024 315.886 23.5209 307.968 19.5275 299.864H38.4068V323.478H33.6389ZM38.4068 329.804C37.0148 328.048 35.6665 326.273 34.3608 324.478H38.4068L38.4068 329.804ZM55.4188 348.093C49.5488 342.707 44.2233 337.002 39.4068 331.052L39.4068 324.478H63.0214V348.093H55.4188ZM63.0214 354.637C60.7846 352.831 58.6177 350.982 56.519 349.093H63.0214V354.637ZM87.6359 371.032C79.0277 366.348 71.1728 361.114 64.0214 355.437V349.093H87.6359V371.032ZM90.7928 372.708C90.0687 372.333 89.3498 371.954 88.6359 371.572V349.093H112.251V372.708H90.7928ZM112.251 382.091C105.379 379.589 98.8864 376.783 92.7552 373.708H112.251V382.091ZM136.865 389.323C128.542 387.415 120.677 385.11 113.251 382.452V373.708H136.865V389.323ZM161.48 393.289C155.204 392.724 149.092 391.858 143.217 390.685C141.412 390.325 139.629 389.946 137.865 389.55V373.708H161.48V393.289ZM186.094 393.992C178.073 394.228 170.157 394.026 162.48 393.376V373.708H186.094V393.992ZM210.709 391.925C202.824 393.013 194.912 393.694 187.094 393.96V373.708L210.709 373.708V391.925ZM235.323 387.161C227.569 389.109 219.655 390.654 211.709 391.785V373.708H235.323V387.161ZM259.938 379.366C252.342 382.315 244.422 384.832 236.323 386.907V373.708H259.938V379.366ZM272.993 373.708C269.088 375.59 265.062 377.346 260.938 378.974V373.708H272.993ZM284.553 367.546C281.478 369.357 278.3 371.077 275.032 372.708H260.938V349.093H284.553V367.546ZM308.818 349.093C302.143 355.761 294.278 361.721 285.553 366.952V349.093H308.818ZM326.123 324.478C322.346 332.963 316.906 340.719 310.167 347.719V324.478H326.123ZM332.009 299.864C331.585 308.262 329.691 316.139 326.559 323.478H310.167V299.864H332.009ZM333.782 286.327C332.701 289.857 332.1 293.166 332.1 296.24C332.1 297.12 332.084 297.995 332.052 298.864H310.167V275.249H333.782V286.327ZM338.271 275.249C336.91 278.059 335.733 280.765 334.782 283.362V275.249H338.271ZM352.266 250.635C347.085 259.114 342.343 267.017 338.761 274.249H334.782V250.635H352.266ZM358.396 240.605C357.026 242.861 355.665 245.082 354.327 247.267C353.841 248.061 353.357 248.85 352.878 249.635H334.782V226.02H358.396V240.605ZM367.022 226.02C364.503 230.443 361.937 234.758 359.396 238.957V226.02H367.022ZM379.617 201.406C376.008 209.556 371.877 217.443 367.59 225.02H359.396V201.406H379.617ZM383.011 193.242C382.077 195.651 381.09 198.039 380.057 200.406H359.396L359.396 176.791H383.011L383.011 193.242ZM388.364 176.791C387.152 181.459 385.681 186.063 384.011 190.597L384.011 176.791H388.364ZM392.029 152.176C391.781 160.196 390.557 168.079 388.619 175.791H384.011V152.176H392.029ZM391.543 127.562C391.939 134.466 392.076 141.654 392.076 149.153C392.076 149.829 392.069 150.503 392.055 151.176H384.011V127.562H391.543ZM388.614 102.947C390.091 110.44 390.978 118.296 391.484 126.562H384.011V102.947H388.614ZM384.011 86.1314C385.854 91.2214 387.294 96.4874 388.413 101.947H384.011V86.1314ZM380.799 78.3327C381.588 80.0308 382.324 81.7489 383.011 83.4876V101.947H359.396V78.3327H380.799ZM364.036 53.7181C371.04 61.1687 376.336 69.0109 380.327 77.3327H359.396V53.7181H364.036ZM359.396 49.0784C360.673 50.2814 361.902 51.4944 363.083 52.7181H359.396V49.0784ZM334.782 30.7944C344.053 36.3582 351.848 42.1259 358.396 48.1478V52.7181H334.782V30.7944ZM331.908 29.1035C332.539 29.4676 333.164 29.8326 333.782 30.1984V52.7181H310.167V29.1035H331.908ZM310.167 18.0713C317.45 21.3479 324.094 24.6879 330.154 28.1035H310.167V18.0713ZM285.553 8.13003C294.082 11.2412 301.936 14.4019 309.167 17.6236V28.1035H285.553V8.13003ZM275.194 4.48895C278.4 5.57571 281.519 6.6681 284.553 7.76662V28.1035H260.938V4.48895H275.194ZM260.938 0.304979C262.563 0.522864 264.104 0.859532 265.554 1.32149C267.814 2.04163 270.034 2.76407 272.215 3.48895H260.938V0.304979ZM236.323 3.44959C245.194 0.731125 253.236 -0.499613 259.938 0.186914V3.48895H236.323V3.44959ZM211.709 13.6015C219.125 9.88068 226.329 6.7833 233.104 4.48895H235.323V28.1035H211.709V13.6015ZM187.094 27.6815C195.025 22.6256 202.977 18.0332 210.709 14.1063V28.1035L187.094 28.1035V27.6815ZM162.48 44.8928C169.767 39.3407 177.305 34.0188 184.883 29.1035H186.094V52.7181H162.48V44.8928ZM152.561 52.7181C155.479 50.3345 158.457 47.9767 161.48 45.6573V52.7181H152.561ZM137.865 64.8916C139.688 63.568 141.473 62.1492 143.217 60.6211C145.86 58.3056 148.572 56.0009 151.342 53.7181H161.48V77.3327H137.865V64.8916ZM113.861 77.3327C121.921 74.2858 129.672 70.6571 136.865 65.6058V77.3327H113.861ZM88.6359 85.6897C90.968 84.9336 93.296 84.1983 95.6145 83.466C100.862 81.8085 106.061 80.1663 111.15 78.3327H112.251V101.947H88.6359V85.6897ZM64.0214 95.2572C71.7941 91.4472 79.7344 88.5973 87.6359 86.0152V101.947H64.0214V95.2572ZM64.0214 102.947V126.562H87.6359V102.947H64.0214ZM39.4068 127.562L63.0214 127.562V151.176H39.4068V127.562ZM64.0214 127.562V151.176H87.6359V127.562H64.0214ZM39.4068 152.176H63.0214V175.791H39.4068V152.176ZM64.0214 152.176V175.791H87.6359V152.176H64.0214ZM39.4068 176.791H63.0214L63.0214 200.406H39.4068V176.791ZM64.0214 176.791L64.0214 200.406H87.6359V176.791H64.0214ZM39.4068 201.406H63.0214V225.02H39.4068V201.406ZM64.0214 201.406V225.02H87.6359V201.406H64.0214ZM39.4068 226.02H63.0214V249.635H39.4068V226.02ZM64.0214 226.02V249.635H87.6359V226.02H64.0214ZM39.4068 250.635H63.0214V274.249H39.4068V250.635ZM64.0214 250.635V274.249H87.6359V250.635H64.0214ZM39.4068 275.249H63.0214V298.864H39.4068V275.249ZM64.0214 275.249V298.864H87.6359V275.249H64.0214ZM39.4068 299.864H63.0214V323.478H39.4068V299.864ZM64.0214 299.864V323.478H87.6359V299.864H64.0214ZM64.0214 324.478V348.093H87.6359L87.6359 324.478H64.0214ZM112.251 348.093H88.6359L88.6359 324.478H112.251L112.251 348.093ZM112.251 323.478H88.6359V299.864H112.251V323.478ZM112.251 298.864H88.6359V275.249H112.251V298.864ZM112.251 274.249H88.6359V250.635H112.251V274.249ZM112.251 249.635H88.6359V226.02H112.251V249.635ZM112.251 225.02H88.6359V201.406H112.251V225.02ZM112.251 200.406H88.6359V176.791H112.251V200.406ZM112.251 175.791H88.6359V152.176H112.251V175.791ZM112.251 151.176H88.6359V127.562H112.251V151.176ZM112.251 126.562H88.6359V102.947H112.251V126.562ZM136.865 372.708H113.251V349.093H136.865V372.708ZM136.865 348.093H113.251L113.251 324.478H136.865V348.093ZM136.865 323.478H113.251V299.864H136.865V323.478ZM136.865 298.864H113.251V275.249H136.865V298.864ZM136.865 274.249H113.251V250.635H136.865V274.249ZM136.865 249.635H113.251V226.02H136.865V249.635ZM136.865 225.02H113.251V201.406H136.865V225.02ZM136.865 200.406H113.251V176.791H136.865V200.406ZM136.865 175.791H113.251V152.176H136.865V175.791ZM136.865 151.176H113.251V127.562H136.865V151.176ZM136.865 126.562H113.251V102.947H136.865V126.562ZM136.865 101.947H113.251V78.3327H136.865V101.947ZM161.48 372.708H137.865V349.093H161.48V372.708ZM161.48 348.093H137.865V324.478H161.48V348.093ZM161.48 323.478H137.865V299.864H161.48V323.478ZM161.48 298.864H137.865V275.249H161.48V298.864ZM161.48 274.249H137.865V250.635H161.48V274.249ZM161.48 249.635H137.865V226.02H161.48V249.635ZM161.48 225.02H137.865V201.406H161.48V225.02ZM161.48 200.406H137.865V176.791H161.48L161.48 200.406ZM161.48 175.791H137.865V152.176H161.48V175.791ZM161.48 151.176H137.865V127.562H161.48V151.176ZM161.48 126.562H137.865V102.947H161.48V126.562ZM161.48 101.947H137.865V78.3327H161.48V101.947ZM236.323 28.1035V4.48895H259.938V28.1035H236.323ZM359.396 102.947H383.011V126.562H359.396V102.947ZM359.396 127.562H383.011V151.176H359.396V127.562ZM359.396 152.176H383.011V175.791H359.396V152.176ZM259.938 349.093V372.708H236.323V349.093H259.938ZM235.323 349.093V372.708H211.709V349.093H235.323ZM210.709 349.093V372.708L187.094 372.708V349.093L210.709 349.093ZM186.094 349.093V372.708H162.48V349.093H186.094ZM186.094 348.093H162.48V324.478H186.094V348.093ZM186.094 323.478H162.48V299.864H186.094V323.478ZM186.094 298.864H162.48V275.249H186.094V298.864ZM186.094 274.249H162.48V250.635H186.094V274.249ZM186.094 249.635H162.48V226.02H186.094V249.635ZM186.094 225.02H162.48V201.406H186.094V225.02ZM186.094 200.406H162.48L162.48 176.791H186.094L186.094 200.406ZM186.094 175.791H162.48V152.176H186.094V175.791ZM186.094 151.176H162.48V127.562H186.094V151.176ZM186.094 126.562H162.48V102.947H186.094V126.562ZM186.094 101.947H162.48V78.3327H186.094V101.947ZM186.094 77.3327H162.48V53.7181H186.094V77.3327ZM187.094 52.7181V29.1035L210.709 29.1035V52.7181L187.094 52.7181ZM211.709 52.7181V29.1035H235.323V52.7181H211.709ZM236.323 52.7181V29.1035H259.938V52.7181H236.323ZM260.938 52.7181V29.1035H284.553V52.7181H260.938ZM285.553 52.7181V29.1035H309.167V52.7181H285.553ZM334.782 53.7181H358.396V77.3327L334.782 77.3327V53.7181ZM334.782 78.3327L358.396 78.3327V101.947L334.782 101.947V78.3327ZM334.782 102.947L358.396 102.947V126.562L334.782 126.562V102.947ZM334.782 127.562L358.396 127.562V151.176H334.782V127.562ZM334.782 152.176H358.396V175.791H334.782V152.176ZM334.782 176.791H358.396L358.396 200.406H334.782L334.782 176.791ZM334.782 201.406H358.396V225.02H334.782V201.406ZM309.167 324.478V348.093H285.553V324.478H309.167ZM284.553 324.478V348.093H260.938V324.478H284.553ZM259.938 324.478V348.093H236.323V324.478H259.938ZM235.323 324.478V348.093H211.709V324.478H235.323ZM210.709 324.478V348.093L187.094 348.093V324.478L210.709 324.478ZM210.709 323.478L187.094 323.478V299.864L210.709 299.864V323.478ZM210.709 298.864L187.094 298.864V275.249L210.709 275.249V298.864ZM210.709 274.249L187.094 274.249V250.635L210.709 250.635V274.249ZM210.709 249.635L187.094 249.635V226.02L210.709 226.02V249.635ZM210.709 225.02L187.094 225.02V201.406L210.709 201.406V225.02ZM210.709 200.406L187.094 200.406L187.094 176.791L210.709 176.791L210.709 200.406ZM210.709 175.791L187.094 175.791V152.176L210.709 152.176V175.791ZM210.709 151.176L187.094 151.176V127.562H210.709V151.176ZM210.709 126.562H187.094V102.947H210.709V126.562ZM210.709 101.947H187.094V78.3327H210.709V101.947ZM210.709 77.3327H187.094V53.7181L210.709 53.7181V77.3327ZM211.709 77.3327V53.7181H235.323V77.3327H211.709ZM236.323 77.3327V53.7181H259.938V77.3327H236.323ZM260.938 77.3327V53.7181H284.553V77.3327H260.938ZM285.553 77.3327V53.7181H309.167V77.3327H285.553ZM310.167 77.3327V53.7181H333.782V77.3327H310.167ZM310.167 78.3327H333.782V101.947H310.167V78.3327ZM310.167 102.947H333.782V126.562H310.167V102.947ZM310.167 127.562H333.782V151.176H310.167V127.562ZM310.167 152.176H333.782V175.791H310.167V152.176ZM310.167 176.791H333.782L333.782 200.406H310.167L310.167 176.791ZM310.167 201.406H333.782V225.02H310.167V201.406ZM310.167 226.02H333.782V249.635H310.167V226.02ZM310.167 250.635H333.782V274.249H310.167V250.635ZM309.167 299.864V323.478H285.553V299.864H309.167ZM284.553 299.864V323.478H260.938V299.864H284.553ZM259.938 299.864V323.478H236.323V299.864H259.938ZM235.323 299.864V323.478H211.709V299.864H235.323ZM235.323 298.864H211.709V275.249H235.323V298.864ZM235.323 274.249H211.709V250.635H235.323V274.249ZM235.323 249.635H211.709V226.02H235.323V249.635ZM235.323 225.02H211.709V201.406H235.323V225.02ZM235.323 200.406H211.709L211.709 176.791H235.323L235.323 200.406ZM235.323 175.791H211.709V152.176H235.323V175.791ZM235.323 151.176H211.709V127.562H235.323V151.176ZM235.323 126.562H211.709V102.947H235.323V126.562ZM235.323 101.947H211.709V78.3327H235.323V101.947ZM236.323 101.947V78.3327H259.938V101.947H236.323ZM260.938 101.947V78.3327H284.553V101.947H260.938ZM285.553 101.947V78.3327H309.167V101.947H285.553ZM285.553 102.947H309.167V126.562H285.553V102.947ZM285.553 127.562H309.167V151.176H285.553V127.562ZM285.553 152.176H309.167V175.791H285.553V152.176ZM285.553 176.791H309.167L309.167 200.406H285.553L285.553 176.791ZM285.553 201.406H309.167V225.02H285.553V201.406ZM285.553 226.02H309.167V249.635H285.553V226.02ZM285.553 250.635H309.167V274.249H285.553V250.635ZM285.553 275.249H309.167V298.864H285.553V275.249ZM284.553 275.249V298.864H260.938V275.249H284.553ZM259.938 275.249V298.864H236.323V275.249H259.938ZM259.938 274.249H236.323V250.635H259.938V274.249ZM259.938 249.635H236.323V226.02H259.938V249.635ZM259.938 225.02H236.323V201.406H259.938V225.02ZM259.938 200.406H236.323L236.323 176.791H259.938L259.938 200.406ZM259.938 175.791H236.323V152.176H259.938V175.791ZM259.938 151.176H236.323V127.562H259.938V151.176ZM259.938 126.562H236.323V102.947H259.938V126.562ZM260.938 126.562V102.947H284.553V126.562H260.938ZM260.938 127.562H284.553V151.176H260.938V127.562ZM260.938 152.176H284.553V175.791H260.938V152.176ZM260.938 176.791H284.553L284.553 200.406H260.938L260.938 176.791ZM260.938 201.406H284.553V225.02H260.938V201.406ZM260.938 226.02H284.553V249.635H260.938V226.02ZM260.938 250.635H284.553V274.249H260.938V250.635ZM14.7922 152.176H38.4068V175.791H14.7922V152.176ZM14.7922 176.791H38.4068V200.406H14.7922V176.791ZM14.7922 201.406H38.4068V225.02H14.7922V201.406ZM14.7922 226.02H38.4068V249.635H14.7922V226.02ZM14.7922 250.635H38.4068V274.249H14.7922L14.7922 250.635Z" fill="url(#paint0_radial)"/>
<defs>
<radialGradient id="paint0_radial" cx="0" cy="0" r="1" gradientUnits="userSpaceOnUse" gradientTransform="translate(221.609 180.318) rotate(105.315) scale(261.199 310.338)">
<stop stop-color="#98CEC4"/>
<stop offset="1" stop-color="#98CEC4" stop-opacity="0"/>
</radialGradient>
</defs>
</svg>
